{
	"asset":{
		"generator":"Khronos glTF Blender I/O v3.6.6",
		"version":"2.0"
	},
	"scene":0,
	"scenes":[
		{
			"name":"Scene",
			"nodes":[
				4
			]
		}
	],
	"nodes":[
		{
			"mesh":0,
			"name":"claw.001"
		},
		{
			"children":[
				0
			],
			"mesh":1,
			"name":"hand",
			"translation":[
				0,
				0,
				-1.9000000953674316
			]
		},
		{
			"children":[
				1
			],
			"mesh":2,
			"name":"arm1.002",
			"rotation":[
				0,
				0,
				1,
				1.0724229088045125e-14
			],
			"translation":[
				0,
				0,
				-2
			]
		},
		{
			"children":[
				2
			],
			"mesh":3,
			"name":"arm1.003",
			"translation":[
				-1,
				1,
				0
			]
		},
		{
			"children":[
				3
			],
			"mesh":4,
			"name":"Base.001",
			"translation":[
				1,
				0.5,
				0
			]
		}
	],
	"materials":[
		{
			"doubleSided":true,
			"name":"Material.001",
			"pbrMetallicRoughness":{
				"baseColorFactor":[
					0,
					0.0035832752473652363,
					0.8000000715255737,
					1
				],
				"metallicFactor":0.7806689739227295,
				"roughnessFactor":0.5
			}
		}
	],
	"meshes":[
		{
			"name":"claw.001",
			"primitives":[
				{
					"attributes":{
						"POSITION":0,
						"TEXCOORD_0":1,
						"NORMAL":2
					},
					"indices":3,
					"material":0
				}
			]
		},
		{
			"name":"hand",
			"primitives":[
				{
					"attributes":{
						"COLOR_0":4,
						"POSITION":5,
						"TEXCOORD_0":6,
						"NORMAL":7
					},
					"indices":8,
					"material":0
				}
			]
		},
		{
			"name":"arm1.005",
			"primitives":[
				{
					"attributes":{
						"POSITION":9,
						"TEXCOORD_0":10,
						"NORMAL":11
					},
					"indices":12,
					"material":0
				}
			]
		},
		{
			"name":"arm1.003",
			"primitives":[
				{
					"attributes":{
						"POSITION":13,
						"TEXCOORD_0":14,
						"NORMAL":15
					},
					"indices":12,
					"material":0
				}
			]
		},
		{
			"name":"Base.001",
			"primitives":[
				{
					"attributes":{
						"POSITION":16,
						"TEXCOORD_0":17,
						"NORMAL":18
					},
					"indices":19,
					"material":0
				}
			]
		}
	],
	"accessors":[
		{
			"bufferView":0,
			"componentType":5126,
			"count":48,
			"max":[
				0.1875,
				0.12499988079071045,
				-0.3124995231628418
			],
			"min":[
				-0.1875,
				-0.1250002384185791,
				-0.8749995231628418
			],
			"type":"VEC3"
		},
		{
			"bufferView":1,
			"componentType":5126,
			"count":48,
			"type":"VEC2"
		},
		{
			"bufferView":2,
			"componentType":5126,
			"count":48,
			"type":"VEC3"
		},
		{
			"bufferView":3,
			"componentType":5123,
			"count":72,
			"type":"SCALAR"
		},
		{
			"bufferView":4,
			"componentType":5123,
			"count":96,
			"normalized":true,
			"type":"VEC4"
		},
		{
			"bufferView":5,
			"componentType":5126,
			"count":96,
			"max":[
				0.25,
				0.2499997615814209,
				0.2500004768371582
			],
			"min":[
				-0.25,
				-0.2500002384185791,
				-0.4374995231628418
			],
			"type":"VEC3"
		},
		{
			"bufferView":6,
			"componentType":5126,
			"count":96,
			"type":"VEC2"
		},
		{
			"bufferView":7,
			"componentType":5126,
			"count":96,
			"type":"VEC3"
		},
		{
			"bufferView":8,
			"componentType":5123,
			"count":144,
			"type":"SCALAR"
		},
		{
			"bufferView":9,
			"componentType":5126,
			"count":96,
			"max":[
				0.4375,
				0.4375,
				0.43749988079071045
			],
			"min":[
				-0.4375,
				-0.4375,
				-2
			],
			"type":"VEC3"
		},
		{
			"bufferView":10,
			"componentType":5126,
			"count":96,
			"type":"VEC2"
		},
		{
			"bufferView":11,
			"componentType":5126,
			"count":96,
			"type":"VEC3"
		},
		{
			"bufferView":12,
			"componentType":5123,
			"count":144,
			"type":"SCALAR"
		},
		{
			"bufferView":13,
			"componentType":5126,
			"count":96,
			"max":[
				0.4375000298023224,
				0.4375000596046448,
				0.43750008940696716
			],
			"min":[
				-0.4375000596046448,
				-0.4375000596046448,
				-2
			],
			"type":"VEC3"
		},
		{
			"bufferView":14,
			"componentType":5126,
			"count":96,
			"type":"VEC2"
		},
		{
			"bufferView":15,
			"componentType":5126,
			"count":96,
			"type":"VEC3"
		},
		{
			"bufferView":16,
			"componentType":5126,
			"count":48,
			"max":[
				-0.5,
				0.5625,
				0.5
			],
			"min":[
				-1.5,
				-0.5000000596046448,
				-0.5000000596046448
			],
			"type":"VEC3"
		},
		{
			"bufferView":17,
			"componentType":5126,
			"count":48,
			"type":"VEC2"
		},
		{
			"bufferView":18,
			"componentType":5126,
			"count":48,
			"type":"VEC3"
		},
		{
			"bufferView":19,
			"componentType":5123,
			"count":72,
			"type":"SCALAR"
		}
	],
	"bufferViews":[
		{
			"buffer":0,
			"byteLength":576,
			"byteOffset":0,
			"target":34962
		},
		{
			"buffer":0,
			"byteLength":384,
			"byteOffset":576,
			"target":34962
		},
		{
			"buffer":0,
			"byteLength":576,
			"byteOffset":960,
			"target":34962
		},
		{
			"buffer":0,
			"byteLength":144,
			"byteOffset":1536,
			"target":34963
		},
		{
			"buffer":0,
			"byteLength":768,
			"byteOffset":1680,
			"target":34962
		},
		{
			"buffer":0,
			"byteLength":1152,
			"byteOffset":2448,
			"target":34962
		},
		{
			"buffer":0,
			"byteLength":768,
			"byteOffset":3600,
			"target":34962
		},
		{
			"buffer":0,
			"byteLength":1152,
			"byteOffset":4368,
			"target":34962
		},
		{
			"buffer":0,
			"byteLength":288,
			"byteOffset":5520,
			"target":34963
		},
		{
			"buffer":0,
			"byteLength":1152,
			"byteOffset":5808,
			"target":34962
		},
		{
			"buffer":0,
			"byteLength":768,
			"byteOffset":6960,
			"target":34962
		},
		{
			"buffer":0,
			"byteLength":1152,
			"byteOffset":7728,
			"target":34962
		},
		{
			"buffer":0,
			"byteLength":288,
			"byteOffset":8880,
			"target":34963
		},
		{
			"buffer":0,
			"byteLength":1152,
			"byteOffset":9168,
			"target":34962
		},
		{
			"buffer":0,
			"byteLength":768,
			"byteOffset":10320,
			"target":34962
		},
		{
			"buffer":0,
			"byteLength":1152,
			"byteOffset":11088,
			"target":34962
		},
		{
			"buffer":0,
			"byteLength":576,
			"byteOffset":12240,
			"target":34962
		},
		{
			"buffer":0,
			"byteLength":384,
			"byteOffset":12816,
			"target":34962
		},
		{
			"buffer":0,
			"byteLength":576,
			"byteOffset":13200,
			"target":34962
		},
		{
			"buffer":0,
			"byteLength":144,
			"byteOffset":13776,
			"target":34963
		}
	],
	"buffers":[
		{
			"byteLength":13920,
			"uri":"data:application/octet-stream;base64,"
		}
	]
}
