{
	"asset":{
		"generator":"Khronos glTF Blender I/O v4.0.44",
		"version":"2.0"
	},
	"extensionsUsed":[
		"KHR_materials_specular",
		"KHR_materials_ior"
	],
	"scene":0,
	"scenes":[
		{
			"name":"Scene",
			"nodes":[
				6
			]
		}
	],
	"nodes":[
		{
			"mesh":0,
			"name":"claw",
			"rotation":[
				-0.7071061134338379,
				-0.0010105049004778266,
				0.7071059942245483,
				0.001010489766485989
			],
			"scale":[
				1,
				0.9999999403953552,
				1
			],
			"translation":[
				-0.5000002384185791,
				0.5122942328453064,
				-4.301053047180176
			]
		},
		{
			"children":[
				0
			],
			"name":"clawBone",
			"rotation":[
				-0.7081164121627808,
				5.209304987374708e-09,
				5.194439545164187e-09,
				0.7060957551002502
			],
			"scale":[
				1,
				1,
				1.0000001192092896
			],
			"translation":[
				2.2495715512604875e-08,
				1.812501072883606,
				-6.430148857816675e-08
			]
		},
		{
			"mesh":1,
			"name":"secondArm",
			"rotation":[
				0.5000001192092896,
				-0.49999988079071045,
				-0.5000001192092896,
				0.4999999403953552
			],
			"scale":[
				1.0000001192092896,
				1,
				1
			],
			"translation":[
				-0.5000000596046448,
				-2.490000009536743,
				-0.5000012516975403
			]
		},
		{
			"children":[
				1,
				2
			],
			"name":"secondArmBone",
			"rotation":[
				-1.8472294982530002e-07,
				3.181368505493585e-15,
				1.1818173106803442e-08,
				1
			],
			"scale":[
				1,
				0.9999999403953552,
				1
			],
			"translation":[
				-6.556470033558526e-09,
				2.000000238418579,
				-3.054740460584071e-08
			]
		},
		{
			"mesh":2,
			"name":"firstArm",
			"rotation":[
				0.5000000596046448,
				-0.4999999403953552,
				-0.5,
				0.5
			],
			"translation":[
				-0.4999999701976776,
				-0.4899998903274536,
				-0.5000002384185791
			]
		},
		{
			"children":[
				3,
				4
			],
			"name":"firstArmBone",
			"rotation":[
				-0.5000000596046448,
				0.4999999403953552,
				0.5,
				0.5
			],
			"translation":[
				-0.4899998605251312,
				0.5000001192092896,
				-0.5
			]
		},
		{
			"children":[
				5
			],
			"name":"Basic Robot Arm"
		}
	],
	"materials":[
		{
			"doubleSided":true,
			"extensions":{
				"KHR_materials_specular":{
					"specularFactor":0
				},
				"KHR_materials_ior":{
					"ior":1.4500000476837158
				}
			},
			"name":"none",
			"pbrMetallicRoughness":{
				"baseColorFactor":[
					0.800000011920929,
					0.800000011920929,
					0.800000011920929,
					1
				],
				"metallicFactor":0
			}
		}
	],
	"meshes":[
		{
			"name":"clawMesh",
			"primitives":[
				{
					"attributes":{
						"POSITION":0,
						"NORMAL":1,
						"TEXCOORD_0":2
					},
					"indices":3,
					"material":0
				}
			]
		},
		{
			"name":"seconArmMesh",
			"primitives":[
				{
					"attributes":{
						"POSITION":4,
						"NORMAL":5,
						"TEXCOORD_0":6
					},
					"indices":7,
					"material":0
				}
			]
		},
		{
			"name":"firstArmMesh",
			"primitives":[
				{
					"attributes":{
						"POSITION":8,
						"NORMAL":9,
						"TEXCOORD_0":10
					},
					"indices":11,
					"material":0
				}
			]
		}
	],
	"skins":[
		{
			"inverseBindMatrices":12,
			"joints":[
				5,
				3,
				1
			],
			"name":"Basic Robot Arm"
		}
	],
	"accessors":[
		{
			"bufferView":0,
			"componentType":5126,
			"count":140,
			"max":[
				-4.047196865081787,
				0.7589775919914246,
				-0.248748779296875
			],
			"min":[
				-4.547196865081787,
				-0.3660219609737396,
				-0.748748779296875
			],
			"type":"VEC3"
		},
		{
			"bufferView":1,
			"componentType":5126,
			"count":140,
			"type":"VEC3"
		},
		{
			"bufferView":2,
			"componentType":5126,
			"count":140,
			"type":"VEC2"
		},
		{
			"bufferView":3,
			"componentType":5123,
			"count":210,
			"type":"SCALAR"
		},
		{
			"bufferView":4,
			"componentType":5126,
			"count":96,
			"max":[
				-2.0749995708465576,
				0.937501072883606,
				-0.06250041723251343
			],
			"min":[
				-4.074999809265137,
				0.06250078976154327,
				-0.9375007152557373
			],
			"type":"VEC3"
		},
		{
			"bufferView":5,
			"componentType":5126,
			"count":96,
			"type":"VEC3"
		},
		{
			"bufferView":6,
			"componentType":5126,
			"count":96,
			"type":"VEC2"
		},
		{
			"bufferView":7,
			"componentType":5123,
			"count":144,
			"type":"SCALAR"
		},
		{
			"bufferView":8,
			"componentType":5126,
			"count":96,
			"max":[
				-0.062499117106199265,
				0.9375004768371582,
				-0.06249970197677612
			],
			"min":[
				-2.062499761581421,
				0.0625004917383194,
				-0.9375
			],
			"type":"VEC3"
		},
		{
			"bufferView":9,
			"componentType":5126,
			"count":96,
			"type":"VEC3"
		},
		{
			"bufferView":10,
			"componentType":5126,
			"count":96,
			"type":"VEC2"
		},
		{
			"bufferView":11,
			"componentType":5123,
			"count":144,
			"type":"SCALAR"
		},
		{
			"bufferView":12,
			"componentType":5126,
			"count":3,
			"type":"MAT4"
		}
	],
	"bufferViews":[
		{
			"buffer":0,
			"byteLength":1680,
			"byteOffset":0,
			"target":34962
		},
		{
			"buffer":0,
			"byteLength":1680,
			"byteOffset":1680,
			"target":34962
		},
		{
			"buffer":0,
			"byteLength":1120,
			"byteOffset":3360,
			"target":34962
		},
		{
			"buffer":0,
			"byteLength":420,
			"byteOffset":4480,
			"target":34963
		},
		{
			"buffer":0,
			"byteLength":1152,
			"byteOffset":4900,
			"target":34962
		},
		{
			"buffer":0,
			"byteLength":1152,
			"byteOffset":6052,
			"target":34962
		},
		{
			"buffer":0,
			"byteLength":768,
			"byteOffset":7204,
			"target":34962
		},
		{
			"buffer":0,
			"byteLength":288,
			"byteOffset":7972,
			"target":34963
		},
		{
			"buffer":0,
			"byteLength":1152,
			"byteOffset":8260,
			"target":34962
		},
		{
			"buffer":0,
			"byteLength":1152,
			"byteOffset":9412,
			"target":34962
		},
		{
			"buffer":0,
			"byteLength":768,
			"byteOffset":10564,
			"target":34962
		},
		{
			"buffer":0,
			"byteLength":288,
			"byteOffset":11332,
			"target":34963
		},
		{
			"buffer":0,
			"byteLength":192,
			"byteOffset":11620
		}
	],
	"buffers":[
		{
			"byteLength":11812,
			"uri":"arm.bin",
			"extras": {
				"resourceLocation": "mechanicalarms:models/block/arm.bin"
			}
		}
	]
}
