# Made in Blockbench 4.2.5
mtllib arm_claw.mtl

o claw
v 0.375 1.0625 0.1875
v 0.3125 1.0625 0.1875
v 0.3125 1.3125 0.1875
v 0.375 1.3125 0.1875
v 0.375 1.0625 0.8125
v 0.375 1.3125 0.8125
v 0.3125 1.0625 0.8125
v 0.3125 1.3125 0.8125
vt 0.0625 0.5
vt 0.09375 0.5
vt 0.09375 0.625
vt 0.0625 0.625
vt 0 0.875
vt 0.3125 0.875
vt 0.3125 1
vt 0 1
vt 0.09375 0.5
vt 0.125 0.5
vt 0.125 0.625
vt 0.09375 0.625
vt 0 0.75
vt 0.3125 0.75
vt 0.3125 0.875
vt 0 0.875
vt 0.3125 0.5625
vt 0.34375 0.5625
vt 0.34375 0.875
vt 0.3125 0.875
vt 0.34375 0.5625
vt 0.375 0.5625
vt 0.375 0.875
vt 0.34375 0.875
vn 0 0 -1
vn 1 0 0
vn 0 0 1
vn -1 0 0
vn 0 1 0
vn 0 -1 0
usemtl m_0
f 1/1/1 2/2/1 3/3/1 4/4/1
f 5/5/2 1/6/2 4/7/2 6/8/2
f 7/9/3 5/10/3 6/11/3 8/12/3
f 2/13/4 7/14/4 8/15/4 3/16/4
f 8/17/5 6/18/5 4/19/5 3/20/5
f 2/21/6 1/22/6 5/23/6 7/24/6
o claw
v 0.6875 1.0625 0.1875
v 0.625 1.0625 0.1875
v 0.625 1.3125 0.1875
v 0.6875 1.3125 0.1875
v 0.6875 1.0625 0.8125
v 0.6875 1.3125 0.8125
v 0.625 1.0625 0.8125
v 0.625 1.3125 0.8125
vt 0.125 0.5
vt 0.15625 0.5
vt 0.15625 0.625
vt 0.125 0.625
vt 0 0.625
vt 0.3125 0.625
vt 0.3125 0.75
vt 0 0.75
vt 0.375 0.75
vt 0.40625 0.75
vt 0.40625 0.875
vt 0.375 0.875
vt 0.3125 0.875
vt 0.625 0.875
vt 0.625 1
vt 0.3125 1
vt 0 0.3125
vt 0.03125 0.3125
vt 0.03125 0.625
vt 0 0.625
vt 0.03125 0.3125
vt 0.0625 0.3125
vt 0.0625 0.625
vt 0.03125 0.625
vn 0 0 -1
vn 1 0 0
vn 0 0 1
vn -1 0 0
vn 0 1 0
vn 0 -1 0
usemtl m_0
f 9/25/7 10/26/7 11/27/7 12/28/7
f 13/29/8 9/30/8 12/31/8 14/32/8
f 15/33/9 13/34/9 14/35/9 16/36/9
f 10/37/10 15/38/10 16/39/10 11/40/10
f 16/41/11 14/42/11 12/43/11 11/44/11
f 10/45/12 9/46/12 13/47/12 15/48/12