# Blender 4.0.2
# www.blender.org
mtllib base.mtl
g BASE_mesh
v 0.200000 1.000000 0.000000
v -0.500000 1.000000 0.300000
v -0.500000 0.000000 -0.300000
v -0.500000 1.000000 -0.300000
v -0.300000 1.000000 0.200000
v -0.300000 1.000000 -0.200000
v -0.500000 0.000000 -0.500000
v -0.500000 1.000000 -0.500000
v -0.400000 0.000000 -0.500000
v -0.400000 1.000000 -0.500000
v 0.100000 1.000000 -0.200000
v 0.200000 0.000000 -0.500000
v 0.200000 0.800000 -0.500000
v 0.500000 0.000000 -0.300000
v 0.500000 0.500000 -0.300000
v 0.500000 0.000000 -0.500000
v 0.500000 0.500000 -0.500000
v 0.100000 1.000000 0.200000
v 0.500000 0.000000 0.300000
v 0.500000 0.500000 0.300000
v 0.200000 0.000000 0.500000
v 0.200000 0.800000 0.500000
v 0.500000 0.000000 0.500000
v 0.500000 0.500000 0.500000
v 0.200000 0.500000 0.300000
v -0.400000 0.000000 0.500000
v -0.400000 1.000000 0.500000
v -0.500000 0.000000 0.300000
v -0.100000 1.000000 -0.300000
v -0.500000 0.000000 0.500000
v -0.500000 1.000000 0.500000
v 0.200000 0.500000 -0.300000
v -0.400000 1.000000 0.000000
v -0.400000 0.500000 -0.300000
v -0.400000 0.500000 0.300000
v -0.100000 1.000000 0.300000
v -0.100000 0.500000 0.300000
v 0.200000 0.500000 0.000000
v -0.400000 0.500000 0.000000
v -0.100000 0.500000 -0.300000
vn -1.0000 -0.0000 -0.0000
vn 0.9806 -0.1961 -0.0000
vn -0.0000 1.0000 -0.0000
vn -0.0000 -0.0000 -1.0000
vn 0.2408 0.8427 -0.4815
vn 1.0000 -0.0000 -0.0000
vn 0.7071 0.7071 -0.0000
vn 0.6967 0.6271 0.3484
vn -0.0000 -0.0000 1.0000
vn -0.8944 -0.0000 0.4472
vn -0.8944 -0.0000 -0.4472
vn 0.4472 -0.0000 -0.8944
vn -0.0000 -1.0000 -0.0000
vn -0.4472 -0.0000 -0.8944
vn -0.4472 -0.0000 0.8944
vn 0.4472 -0.0000 0.8944
vn 0.8944 -0.0000 -0.4472
vn 0.2857 0.8571 -0.4286
vn 0.7518 0.6361 -0.1735
vn 0.7518 0.6361 0.1735
vn 0.8575 0.5145 -0.0000
vn 0.6967 0.6271 -0.3484
vn 0.2857 0.8571 0.4286
vn 0.2408 0.8427 0.4815
vn -0.9806 -0.1961 -0.0000
vn 0.8944 -0.0000 0.4472
vn -0.0000 -0.1961 -0.9806
vn -0.0000 -0.1961 0.9806
vt 0.625000 0.000000
vt 0.375000 0.250000
vt 0.375000 0.000000
vt 0.500000 0.625000
vt 0.625000 0.750000
vt 0.500000 0.750000
vt 0.875000 0.500000
vt 0.875000 0.750000
vt 0.625000 0.625000
vt 0.625000 0.250000
vt 0.375000 0.500000
vt 0.625000 0.500000
vt 0.500000 0.500000
vt 0.000000 0.000000
s 0
usemtl Material.002
f 2/1/1 3/2/1 28/3/1
f 39/4/2 5/5/2 35/6/2
f 4/7/3 2/8/3 33/9/3
f 8/10/4 9/11/4 7/2/4
f 4/7/3 10/12/3 8/7/3
f 4/10/1 7/2/1 3/2/1
f 29/12/5 11/12/5 13/12/5
f 9/11/4 13/12/4 12/11/4
f 14/11/6 17/12/6 15/12/6
f 15/12/6 19/11/6 14/11/6
f 13/12/7 15/12/7 17/12/7
f 12/11/4 17/12/4 16/11/4
f 20/12/7 22/12/7 24/12/7
f 1/12/8 18/12/8 20/12/8
f 21/11/9 24/12/9 22/12/9
f 20/12/6 23/11/6 19/11/6
f 36/12/3 5/12/3 27/12/3
f 22/12/9 26/11/9 21/11/9
f 28/11/1 31/12/1 2/12/1
f 27/12/9 30/11/9 26/11/9
f 27/12/3 2/12/3 31/12/3
f 11/12/10 38/13/10 1/12/10
f 6/12/2 39/4/2 34/13/2
f 38/13/11 18/12/11 1/12/11
f 37/13/12 5/12/12 36/12/12
f 7/14/13 16/14/13 23/14/13
f 18/12/14 37/13/14 36/12/14
f 40/13/15 11/12/15 29/12/15
f 6/12/16 40/13/16 29/12/16
f 2/1/1 4/10/1 3/2/1
f 39/4/17 33/9/17 5/5/17
f 33/9/3 6/12/3 4/7/3
f 2/8/3 5/5/3 33/9/3
f 8/10/4 10/12/4 9/11/4
f 4/7/3 6/12/3 10/12/3
f 4/10/1 8/10/1 7/2/1
f 13/12/18 10/12/18 29/12/18
f 10/12/3 6/12/3 29/12/3
f 9/11/4 10/12/4 13/12/4
f 14/11/6 16/11/6 17/12/6
f 15/12/6 20/12/6 19/11/6
f 13/12/19 11/12/19 15/12/19
f 12/11/4 13/12/4 17/12/4
f 20/12/20 18/12/20 22/12/20
f 20/12/21 15/12/21 1/12/21
f 15/12/22 11/12/22 1/12/22
f 21/11/9 23/11/9 24/12/9
f 20/12/6 24/12/6 23/11/6
f 27/12/23 22/12/23 36/12/23
f 22/12/24 18/12/24 36/12/24
f 22/12/9 27/12/9 26/11/9
f 28/11/1 30/11/1 31/12/1
f 27/12/9 31/12/9 30/11/9
f 27/12/3 5/12/3 2/12/3
f 11/12/25 32/13/25 38/13/25
f 6/12/26 33/9/26 39/4/26
f 38/13/25 25/13/25 18/12/25
f 37/13/27 35/13/27 5/12/27
f 7/14/13 23/14/13 30/14/13
f 18/12/27 25/13/27 37/13/27
f 40/13/28 32/13/28 11/12/28
f 6/12/28 34/13/28 40/13/28
