# Blender 4.0.2
# www.blender.org
mtllib base.mtl
o Cube
v 1.000000 0.100000 -1.000000
v 1.000000 0.000000 -1.000000
v 1.000000 0.100000 0.000000
v 1.000000 0.000000 0.000000
v 0.000000 0.100000 -1.000000
v 0.000000 0.000000 -1.000000
v 0.000000 0.100000 0.000000
v 0.000000 0.000000 0.000000
v 0.900000 0.200000 -0.900000
v 0.900000 0.200000 -0.100000
v 0.100000 0.200000 -0.900000
v 0.100000 0.200000 -0.100000
v 0.900000 0.200000 -0.900000
v 0.900000 0.200000 -0.100000
v 0.100000 0.200000 -0.900000
v 0.100000 0.200000 -0.100000
v 0.900000 0.700000 -0.900000
v 0.900000 0.700000 -0.100000
v 0.100000 0.700000 -0.900000
v 0.100000 0.700000 -0.100000
v 0.800000 0.700000 -0.800000
v 0.800000 0.700000 -0.200000
v 0.200000 0.700000 -0.800000
v 0.200000 0.700000 -0.200000
v 0.200000 0.800000 -0.200000
v 0.200000 0.800000 -0.800000
v 0.800000 0.800000 -0.200000
v 0.800000 0.800000 -0.800000
vn -0.0000 0.7071 0.7071
vn -0.0000 -0.0000 1.0000
vn -1.0000 -0.0000 -0.0000
vn -0.0000 -1.0000 -0.0000
vn 1.0000 -0.0000 -0.0000
vn -0.0000 -0.0000 -1.0000
vn -0.0000 1.0000 -0.0000
vn -0.7071 0.7071 -0.0000
vn 0.7071 0.7071 -0.0000
vn -0.0000 0.7071 -0.7071
vt 0.625000 1.000000
vt 0.625000 0.750000
vt 0.375000 0.750000
vt 0.375000 1.000000
vt 0.375000 0.000000
vt 0.625000 0.000000
vt 0.625000 0.250000
vt 0.375000 0.250000
vt 0.125000 0.500000
vt 0.375000 0.500000
vt 0.125000 0.750000
vt 0.625000 0.500000
s 0
usemtl Material
f 7/1/1 3/2/1 10/2/1 12/1/1
f 4/3/2 3/2/2 7/1/2 8/4/2
f 8/5/3 7/6/3 5/7/3 6/8/3
f 6/9/4 2/10/4 4/3/4 8/11/4
f 2/10/5 1/12/5 3/2/5 4/3/5
f 6/8/6 5/7/6 1/12/6 2/10/6
f 9/12/7 11/7/7 15/7/7 13/12/7
f 5/7/8 7/6/8 12/6/8 11/7/8
f 3/2/9 1/12/9 9/12/9 10/2/9
f 1/12/10 5/7/10 11/7/10 9/12/10
f 15/7/3 16/6/3 20/6/3 19/7/3
f 10/2/7 9/12/7 13/12/7 14/2/7
f 11/7/7 12/6/7 16/6/7 15/7/7
f 12/1/7 10/2/7 14/2/7 16/1/7
f 17/12/7 19/7/7 23/7/7 21/12/7
f 16/1/2 14/2/2 18/2/2 20/1/2
f 13/12/6 15/7/6 19/7/6 17/12/6
f 14/2/5 13/12/5 17/12/5 18/2/5
f 21/12/6 23/7/6 26/7/6 28/12/6
f 18/2/7 17/12/7 21/12/7 22/2/7
f 19/7/7 20/6/7 24/6/7 23/7/7
f 20/1/7 18/2/7 22/2/7 24/1/7
f 24/1/2 22/2/2 27/2/2 25/1/2
f 22/2/5 21/12/5 28/12/5 27/2/5
f 23/7/3 24/6/3 25/6/3 26/7/3
