# Blender 4.0.2
# www.blender.org
mtllib belt.mtl
g Cube.001_Cube.018
v 0.100000 -0.000000 1.000000
v 0.100000 0.100000 1.000000
v 0.100000 -0.000000 -0.000000
v 0.900000 -0.000000 1.000000
v 0.900000 0.100000 1.000000
v 0.900000 -0.000000 -0.000000
v 0.900000 0.100000 -0.000000
v 0.000000 -0.000000 1.000000
v 1.000000 -0.000000 1.000000
v 1.000000 -0.000000 -0.000000
v 0.000000 0.200000 -0.000000
v 0.100000 0.100000 -0.000000
v 0.100000 0.200000 1.000000
v 0.000000 0.200000 1.000000
v 0.900000 0.200000 1.000000
v 0.900000 0.200000 -0.000000
v 1.000000 0.200000 1.000000
v 0.100000 0.200000 -0.000000
v 1.000000 0.200000 -0.000000
v 0.000000 -0.000000 -0.000000
vn -0.0000 -0.0000 1.0000
vn -0.0000 -1.0000 -0.0000
vn -0.0000 1.0000 -0.0000
vn -0.0000 -0.0000 -1.0000
vn 1.0000 -0.0000 -0.0000
vn -0.9950 -0.0000 0.0995
vn -1.0000 -0.0000 -0.0000
vt 0.500000 0.906250
vt 0.437500 0.906250
vt 0.437500 0.500000
vt 0.500000 0.500000
vt 0.062500 0.500000
vt 0.062500 0.000000
vt 0.437500 0.000000
vt 0.875000 0.500000
vt 0.500000 0.000000
vt 0.875000 0.000000
vt 0.093750 0.937500
vt 0.062500 0.937500
vt 0.062500 0.562500
vt 0.093750 0.562500
vt 0.187500 1.000000
vt 0.093750 1.000000
vt 0.093750 0.500000
vt 0.187500 0.500000
vt 1.000000 0.000000
vt 1.000000 0.500000
vt 0.937500 0.500000
vt 0.000000 0.500000
vt 0.000000 0.000000
vt 0.250000 0.500000
vt 0.250000 1.000000
vt 0.312500 0.500000
vt 0.312500 1.000000
vt 0.000000 0.562500
vt 0.343750 0.500000
vt 0.343750 1.000000
vt 0.000000 1.000000
vt 0.000000 0.937500
vt 0.406250 0.500000
vt 0.406250 1.000000
vt 0.500000 0.937500
vt 0.406250 0.937500
vt 0.406250 0.906250
s 0
usemtl Material.001
f 4/1/1 5/2/1 2/3/1 1/4/1
f 3/3/2 6/5/2 4/6/2 1/7/2
f 7/8/3 12/4/3 2/9/3 5/10/3
f 3/11/4 12/12/4 7/13/4 6/14/4
f 10/15/5 19/16/5 17/17/5 9/18/5
f 3/3/2 1/7/2 8/9/2 20/4/2
f 14/8/6 11/10/6 20/19/6 8/20/6 1/20/6 2/21/6 13/8/6
f 4/6/2 6/5/2 10/22/2 9/23/2
f 2/24/5 12/25/5 18/15/5 13/18/5
f 13/26/3 18/27/3 11/25/3 14/24/3
f 6/14/4 7/13/4 16/28/4 19/22/4 10/17/4
f 16/27/3 15/26/3 17/29/3 19/30/3
f 11/31/4 18/32/4 12/12/4 3/11/4 20/16/4
f 7/33/7 5/34/7 15/30/7 16/29/7
f 9/35/1 17/36/1 15/37/1 5/2/1 4/1/1
f 16/18/3 6/18/3 7/18/3
f 18/18/3 3/18/3 12/18/3
