# Blender 4.0.2
# www.blender.org
mtllib claw.mtl
g CLAW_Mesh
v 0.700000 6.300000 0.280000
v 0.700000 6.300000 0.720000
v 0.500000 6.240000 0.500000
v 0.900000 6.300000 0.380000
v 0.900000 6.240000 0.500000
v 0.900000 6.300000 0.620000
v 0.700000 6.000000 0.300001
v 0.700000 6.000000 0.700001
v 0.700000 5.900000 0.500001
v 0.820000 6.030000 0.300001
v 0.820000 6.030000 0.700001
v 0.820000 5.980000 0.500001
v 0.520000 6.170000 0.400001
v 0.520000 6.170000 0.600001
v 0.520000 6.220000 0.500001
v 0.580000 6.030000 0.400001
v 0.580000 6.030000 0.600001
v 0.580000 5.980000 0.500001
v 0.220000 6.170000 0.400000
v 0.220000 6.170000 0.600000
v 0.220000 6.220000 0.500000
v 0.280000 6.030000 0.400000
v 0.280000 6.030000 0.600000
v 0.280000 5.980000 0.500000
v 0.500000 6.400000 0.380000
v 0.500000 6.400000 0.620000
v 0.500000 6.340000 0.500000
v 0.500000 6.240000 0.500000
v 0.500000 6.300000 0.620000
v 0.500000 6.300000 0.380000
v 0.900000 6.400000 0.620000
v 0.900000 6.340000 0.500000
v 0.900000 6.400000 0.380000
v 0.700000 6.400000 0.720000
v 0.700000 6.400000 0.280000
v 0.700000 6.290000 0.500000
v 0.660000 6.300000 0.240000
v 0.460000 6.400000 0.290000
v 0.460000 6.300000 0.340000
v 0.660000 6.400000 0.190000
v 0.740000 6.300000 0.240000
v 0.940000 6.300000 0.340000
v 0.940000 6.400000 0.290000
v 0.740000 6.400000 0.190000
v 0.500000 6.800000 0.380000
v 0.640000 6.800000 0.280000
v 0.460000 6.800000 0.290000
v 0.600000 6.800000 0.190000
v 0.900000 6.800000 0.380000
v 0.760000 6.800000 0.280000
v 0.940000 6.800000 0.290000
v 0.800000 6.800000 0.190000
v 0.700000 6.300000 0.720000
v 0.500000 6.300000 0.620000
v 0.900000 6.400000 0.620000
v 0.900000 6.300000 0.620000
v 0.500000 6.400000 0.620000
v 0.700000 6.400000 0.720000
v 0.740000 6.300000 0.760000
v 0.940000 6.400000 0.710000
v 0.940000 6.300000 0.660000
v 0.740000 6.400000 0.810000
v 0.660000 6.300000 0.760000
v 0.460000 6.300000 0.660000
v 0.460000 6.400000 0.710000
v 0.660000 6.400000 0.810000
v 0.900000 6.800000 0.620000
v 0.760000 6.800000 0.720000
v 0.940000 6.800000 0.710000
v 0.800000 6.800000 0.810000
v 0.500000 6.800000 0.620000
v 0.640000 6.800000 0.720000
v 0.460000 6.800000 0.710000
v 0.600000 6.800000 0.810000
vn -0.2182 -0.8729 0.4364
vn 0.5121 -0.7682 -0.3841
vn -0.2182 0.8729 -0.4364
vn -0.5121 -0.7682 0.3841
vn 0.2357 -0.9428 0.2357
vn 0.9608 -0.2479 0.1240
vn 0.9532 -0.2933 -0.0733
vn 0.4433 0.1314 -0.8867
vn 0.0166 -0.0665 0.9976
vn -0.6865 0.6504 -0.3252
vn -0.0000 -0.8944 0.4472
vn -0.0000 0.8944 -0.4472
vn -0.5252 -0.0566 0.8491
vn -0.5426 -0.5426 0.6412
vn -0.5121 -0.7682 -0.3841
vn -0.6549 -0.2807 -0.7017
vn -0.9018 -0.3865 0.1932
vn -0.9631 -0.2408 -0.1204
vn -0.0000 -0.0000 1.0000
vn -0.0000 -0.0000 -1.0000
vn -0.0000 -0.8944 -0.4472
vn -0.0000 0.8944 0.4472
vn -0.9138 -0.0000 0.4061
vn -0.4472 -0.0000 0.8944
vn 0.2182 0.8729 0.4364
vn -0.0000 -1.0000 -0.0000
vn 0.4472 -0.0000 0.8944
vn -1.0000 -0.0000 -0.0000
vn 0.2182 0.8729 -0.4364
vn -0.2182 0.8729 0.4364
vn 1.0000 -0.0000 -0.0000
vn -0.4082 -0.4082 -0.8165
vn 0.7071 -0.0000 -0.7071
vn -0.8955 0.1990 0.3980
vn 0.4082 -0.4082 -0.8165
vn -0.8955 -0.1990 -0.3980
vn 0.4462 -0.0669 -0.8924
vn 0.7071 -0.0000 0.7071
vn -0.0000 1.0000 -0.0000
vn -0.5812 -0.0000 -0.8137
vn 0.9053 0.1358 -0.4024
vn 0.4462 0.0669 0.8924
vn -0.5812 -0.0000 0.8137
vn 0.9138 -0.0000 0.4061
vn -0.9053 0.1358 -0.4024
vn 0.9138 -0.0000 -0.4061
vn 0.4082 -0.4082 0.8165
vn -0.7071 -0.0000 0.7071
vn 0.8955 0.1990 -0.3980
vn -0.4082 -0.4082 0.8165
vn 0.8955 -0.1990 0.3980
vn -0.4462 -0.0669 0.8924
vn -0.7071 -0.0000 -0.7071
vn 0.5812 -0.0000 0.8137
vn -0.9053 0.1358 0.4024
vn -0.4462 0.0669 -0.8924
vn 0.5812 -0.0000 -0.8137
vn -0.9138 -0.0000 -0.4061
vn 0.9053 0.1358 0.4024
vn 0.2357 -0.9428 -0.2357
vn 0.5121 -0.7682 0.3841
vn 0.9532 -0.2933 0.0733
vn 0.9608 -0.2479 -0.1240
vn 0.0166 -0.0665 -0.9976
vn 0.4433 0.1314 0.8867
vn -0.5426 -0.5426 -0.6412
vn -0.6549 -0.2807 0.7017
vn -0.6865 0.6504 0.3252
vn -0.5252 -0.0566 -0.8491
vn -0.2182 -0.8729 -0.4364
vn 0.8955 -0.1990 -0.3980
vn 0.8955 0.1990 0.3980
vn -0.4462 -0.0669 -0.8924
vn -0.4462 0.0669 0.8924
vn -0.8955 -0.1990 0.3980
vn -0.8955 0.1990 -0.3980
vn 0.4462 -0.0669 0.8924
vn 0.4462 0.0669 -0.8924
vt 0.625000 0.750000
vt 0.625000 0.500000
vt 0.000000 0.000000
vt 0.468750 0.500000
vt 0.468750 0.437500
s 0
usemtl Material
f 3/1/1 2/2/1 29/2/1
f 12/2/2 9/2/2 7/1/2
f 31/3/3 32/3/3 36/4/3
f 9/1/4 8/2/4 17/2/4
f 12/1/5 11/2/5 8/2/5
f 5/3/6 6/3/6 11/3/6
f 5/3/7 12/3/7 10/3/7
f 1/1/8 4/1/8 10/1/8
f 2/2/9 8/2/9 11/2/9
f 1/1/10 13/1/10 15/2/10
f 18/1/11 17/2/11 23/2/11
f 13/1/12 19/1/12 21/2/12
f 8/2/13 2/2/13 14/2/13
f 2/2/14 3/1/14 15/1/14
f 9/2/15 18/2/15 16/1/15
f 7/1/16 16/1/16 13/1/16
f 21/2/17 19/1/17 22/1/17
f 20/2/18 21/1/18 24/1/18
f 14/2/19 20/2/19 23/2/19
f 13/1/20 16/1/20 22/1/20
f 16/1/21 18/2/21 24/2/21
f 15/1/22 21/1/22 20/2/22
f 38/1/23 25/1/23 45/1/23
f 34/2/24 26/2/24 29/2/24
f 36/5/25 35/1/25 25/1/25
f 4/1/26 1/1/26 41/1/26
f 6/2/27 31/2/27 34/2/27
f 30/1/28 28/2/28 27/2/28
f 36/4/29 27/1/29 26/2/29
f 3/2/21 28/2/21 30/1/21
f 33/1/30 35/1/30 36/5/30
f 6/3/31 5/3/31 32/3/31
f 29/2/28 26/2/28 27/1/28
f 4/3/31 33/3/31 32/3/31
f 37/1/32 39/1/32 38/1/32
f 35/1/33 1/1/33 37/1/33
f 25/1/34 38/1/34 39/1/34
f 30/1/26 39/1/26 37/1/26
f 41/1/35 44/1/35 43/1/35
f 35/1/36 44/1/36 41/1/36
f 43/1/37 44/1/37 52/1/37
f 33/3/38 4/3/38 42/3/38
f 46/1/39 48/1/39 47/1/39
f 38/1/40 47/1/40 48/1/40
f 40/1/41 48/1/41 46/1/41
f 25/1/42 35/1/42 46/1/42
f 50/1/39 49/1/39 51/1/39
f 33/1/43 49/1/43 50/1/43
f 43/3/44 51/3/44 49/3/44
f 44/1/45 35/1/45 50/1/45
f 55/1/46 67/1/46 69/1/46
f 54/1/26 53/1/26 63/1/26
f 59/1/47 61/1/47 60/1/47
f 58/1/48 53/1/48 59/1/48
f 55/1/49 60/1/49 61/1/49
f 56/1/26 61/1/26 59/1/26
f 63/1/50 66/1/50 65/1/50
f 58/1/51 66/1/51 63/1/51
f 65/1/52 66/1/52 74/1/52
f 57/3/53 54/3/53 64/3/53
f 68/1/39 70/1/39 69/1/39
f 60/1/54 69/1/54 70/1/54
f 62/1/55 70/1/55 68/1/55
f 55/1/56 58/1/56 68/1/56
f 72/1/39 71/1/39 73/1/39
f 57/1/57 71/1/57 72/1/57
f 57/3/58 65/3/58 73/3/58
f 66/1/59 58/1/59 72/1/59
f 3/1/11 29/2/11 28/1/11
f 12/2/60 7/1/60 10/1/60
f 31/3/3 36/4/3 34/2/3
f 9/1/4 17/2/4 18/1/4
f 12/1/61 8/2/61 9/1/61
f 5/3/62 11/3/62 12/3/62
f 5/3/63 10/3/63 4/3/63
f 1/1/64 10/1/64 7/1/64
f 2/2/65 11/2/65 6/2/65
f 1/1/66 15/2/66 3/2/66
f 18/1/11 23/2/11 24/1/11
f 13/1/12 21/2/12 15/2/12
f 8/2/67 14/2/67 17/2/67
f 2/2/68 15/1/68 14/2/68
f 9/2/15 16/1/15 7/1/15
f 7/1/69 13/1/69 1/1/69
f 21/2/18 22/1/18 24/2/18
f 20/2/17 24/1/17 23/2/17
f 14/2/19 23/2/19 17/2/19
f 13/1/20 22/1/20 19/1/20
f 16/1/21 24/2/21 22/1/21
f 15/1/22 20/2/22 14/2/22
f 38/1/23 45/1/23 47/1/23
f 34/2/24 29/2/24 2/2/24
f 36/5/25 25/1/25 27/2/25
f 4/1/26 41/1/26 42/1/26
f 6/2/27 34/2/27 2/2/27
f 30/1/28 27/2/28 25/1/28
f 36/4/29 26/2/29 34/2/29
f 3/2/70 30/1/70 1/1/70
f 33/1/30 36/5/30 32/3/30
f 6/3/31 32/3/31 31/3/31
f 29/2/28 27/1/28 28/1/28
f 4/3/31 32/3/31 5/3/31
f 37/1/32 38/1/32 40/1/32
f 35/1/71 37/1/71 40/1/71
f 25/1/48 39/1/48 30/1/48
f 30/1/26 37/1/26 1/1/26
f 41/1/35 43/1/35 42/1/35
f 35/1/53 41/1/53 1/1/53
f 43/1/57 52/1/57 51/1/57
f 33/3/72 42/3/72 43/3/72
f 46/1/39 47/1/39 45/1/39
f 38/1/73 48/1/73 40/1/73
f 40/1/41 46/1/41 35/1/41
f 25/1/54 46/1/54 45/1/54
f 50/1/39 51/1/39 52/1/39
f 33/1/74 50/1/74 35/1/74
f 43/3/44 49/3/44 33/3/44
f 44/1/45 50/1/45 52/1/45
f 55/1/46 69/1/46 60/1/46
f 54/1/26 63/1/26 64/1/26
f 59/1/47 60/1/47 62/1/47
f 58/1/75 59/1/75 62/1/75
f 55/1/33 61/1/33 56/1/33
f 56/1/26 59/1/26 53/1/26
f 63/1/50 65/1/50 64/1/50
f 58/1/38 63/1/38 53/1/38
f 65/1/43 74/1/43 73/1/43
f 57/3/76 64/3/76 65/3/76
f 68/1/39 69/1/39 67/1/39
f 60/1/77 70/1/77 62/1/77
f 62/1/55 68/1/55 58/1/55
f 55/1/40 68/1/40 67/1/40
f 72/1/39 73/1/39 74/1/39
f 57/1/78 72/1/78 58/1/78
f 57/3/58 73/3/58 71/3/58
f 66/1/59 72/1/59 74/1/59
